<mxfile host="Electron" agent="Mozilla/5.0 (Windows NT 10.0; Win64; x64) AppleWebKit/537.36 (KHTML, like Gecko) draw.io/26.0.7 Chrome/128.0.6613.186 Electron/32.2.5 Safari/537.36" version="26.0.7">
  <diagram name="Page-1" id="RzzOeVVuILVj-rKlgHVC">
    <mxGraphModel dx="954" dy="657" grid="1" gridSize="10" guides="1" tooltips="1" connect="1" arrows="1" fold="1" page="1" pageScale="1" pageWidth="827" pageHeight="1169" math="1" shadow="0">
      <root>
        <mxCell id="0" />
        <mxCell id="1" parent="0" />
        <mxCell id="DZcYdYBJxWlPa_dF2jv0-11" style="edgeStyle=orthogonalEdgeStyle;rounded=0;orthogonalLoop=1;jettySize=auto;html=1;entryX=0;entryY=0.5;entryDx=0;entryDy=0;fontSize=15;fontFamily=Times New Roman;" parent="1" source="DZcYdYBJxWlPa_dF2jv0-9" target="YKO9Nmm42w6JCE244OgY-2" edge="1">
          <mxGeometry relative="1" as="geometry" />
        </mxCell>
        <mxCell id="DZcYdYBJxWlPa_dF2jv0-9" value="&lt;span style=&quot;color: rgb(0, 0, 0); font-style: normal; font-variant-ligatures: normal; font-variant-caps: normal; font-weight: 400; letter-spacing: normal; orphans: 2; text-align: center; text-indent: 0px; text-transform: none; widows: 2; word-spacing: 0px; -webkit-text-stroke-width: 0px; white-space: normal; background-color: rgb(251, 251, 251); text-decoration-thickness: initial; text-decoration-style: initial; text-decoration-color: initial; float: none; display: inline !important;&quot;&gt;Input Signal&lt;/span&gt;" style="rounded=1;whiteSpace=wrap;html=1;fillColor=none;fontSize=15;fontFamily=Times New Roman;arcSize=0;" parent="1" vertex="1">
          <mxGeometry x="40" y="40" width="80" height="80" as="geometry" />
        </mxCell>
        <mxCell id="DZcYdYBJxWlPa_dF2jv0-3" style="edgeStyle=orthogonalEdgeStyle;rounded=0;orthogonalLoop=1;jettySize=auto;html=1;entryX=0;entryY=0.5;entryDx=0;entryDy=0;fontSize=15;fontFamily=Times New Roman;" parent="1" source="YKO9Nmm42w6JCE244OgY-2" target="DZcYdYBJxWlPa_dF2jv0-2" edge="1">
          <mxGeometry relative="1" as="geometry" />
        </mxCell>
        <mxCell id="YKO9Nmm42w6JCE244OgY-2" value="&lt;font&gt;AlexNet&lt;/font&gt;" style="rounded=1;whiteSpace=wrap;html=1;fillColor=none;fontSize=15;fontFamily=Times New Roman;arcSize=0;" parent="1" vertex="1">
          <mxGeometry x="240" y="40" width="90" height="80" as="geometry" />
        </mxCell>
        <mxCell id="hzvrRbiPL4Qe2yFgD7qX-10" style="edgeStyle=orthogonalEdgeStyle;rounded=0;orthogonalLoop=1;jettySize=auto;html=1;exitX=1;exitY=0.5;exitDx=0;exitDy=0;entryX=1;entryY=0.5;entryDx=0;entryDy=0;fontSize=15;fontFamily=Times New Roman;" parent="1" source="DZcYdYBJxWlPa_dF2jv0-2" target="DZcYdYBJxWlPa_dF2jv0-6" edge="1">
          <mxGeometry relative="1" as="geometry">
            <Array as="points">
              <mxPoint x="580" y="80" />
              <mxPoint x="580" y="200" />
            </Array>
          </mxGeometry>
        </mxCell>
        <mxCell id="DZcYdYBJxWlPa_dF2jv0-2" value="&lt;font&gt;Global Average Pooling&lt;/font&gt;" style="rounded=1;whiteSpace=wrap;html=1;fillColor=none;fontSize=15;fontFamily=Times New Roman;arcSize=0;" parent="1" vertex="1">
          <mxGeometry x="440" y="40" width="100" height="80" as="geometry" />
        </mxCell>
        <mxCell id="hzvrRbiPL4Qe2yFgD7qX-11" style="edgeStyle=orthogonalEdgeStyle;rounded=0;orthogonalLoop=1;jettySize=auto;html=1;exitX=0;exitY=0.5;exitDx=0;exitDy=0;entryX=1;entryY=0.5;entryDx=0;entryDy=0;fontSize=15;fontFamily=Times New Roman;" parent="1" source="DZcYdYBJxWlPa_dF2jv0-6" target="geXmPh3YetOqkn4T5h5A-1" edge="1">
          <mxGeometry relative="1" as="geometry" />
        </mxCell>
        <mxCell id="DZcYdYBJxWlPa_dF2jv0-6" value="&lt;font&gt;&lt;span&gt;LSTM&lt;/span&gt;&lt;/font&gt;" style="rounded=1;whiteSpace=wrap;html=1;fillColor=none;fontSize=15;fontFamily=Times New Roman;arcSize=0;" parent="1" vertex="1">
          <mxGeometry x="440" y="160" width="100" height="80" as="geometry" />
        </mxCell>
        <mxCell id="hzvrRbiPL4Qe2yFgD7qX-12" style="edgeStyle=orthogonalEdgeStyle;rounded=0;orthogonalLoop=1;jettySize=auto;html=1;exitX=0;exitY=0.5;exitDx=0;exitDy=0;fontSize=15;fontFamily=Times New Roman;" parent="1" source="geXmPh3YetOqkn4T5h5A-1" target="QSYPjPyIqQjkb1NIxA9p-1" edge="1">
          <mxGeometry relative="1" as="geometry" />
        </mxCell>
        <mxCell id="geXmPh3YetOqkn4T5h5A-1" value="&lt;font&gt;&lt;span&gt;Flattening&lt;/span&gt;&lt;/font&gt;" style="rounded=1;whiteSpace=wrap;html=1;fillColor=none;fontSize=15;fontFamily=Times New Roman;arcSize=0;" parent="1" vertex="1">
          <mxGeometry x="240" y="160" width="90" height="80" as="geometry" />
        </mxCell>
        <mxCell id="BQgqDWQCYyrBN21gysh5-7" value="&lt;span style=&quot;color: rgb(0, 0, 0); font-style: normal; font-variant-ligatures: normal; font-variant-caps: normal; font-weight: 400; letter-spacing: normal; orphans: 2; text-indent: 0px; text-transform: none; widows: 2; word-spacing: 0px; -webkit-text-stroke-width: 0px; white-space: normal; text-decoration-thickness: initial; text-decoration-style: initial; text-decoration-color: initial; float: none; display: inline !important;&quot;&gt;&lt;font&gt;32×256&lt;/font&gt;&lt;/span&gt;" style="text;whiteSpace=wrap;html=1;fontSize=15;rotation=0;align=center;fontFamily=Times New Roman;" parent="1" vertex="1">
          <mxGeometry x="336" y="160" width="94" height="44" as="geometry" />
        </mxCell>
        <mxCell id="BQgqDWQCYyrBN21gysh5-8" value="&lt;span style=&quot;color: rgb(0, 0, 0); font-style: normal; font-variant-ligatures: normal; font-variant-caps: normal; font-weight: 400; letter-spacing: normal; orphans: 2; text-indent: 0px; text-transform: none; widows: 2; word-spacing: 0px; -webkit-text-stroke-width: 0px; white-space: normal; text-decoration-thickness: initial; text-decoration-style: initial; text-decoration-color: initial; float: none; display: inline !important;&quot;&gt;&lt;font&gt;8192×1&lt;/font&gt;&lt;/span&gt;" style="text;whiteSpace=wrap;html=1;fontSize=15;align=center;fontFamily=Times New Roman;" parent="1" vertex="1">
          <mxGeometry x="130" y="160" width="100" height="30" as="geometry" />
        </mxCell>
        <mxCell id="QSYPjPyIqQjkb1NIxA9p-1" value="&lt;font&gt;&lt;span&gt;Softmax Classifier&lt;/span&gt;&lt;/font&gt;" style="rounded=1;whiteSpace=wrap;html=1;fillColor=none;fontSize=15;fontFamily=Times New Roman;arcSize=0;" parent="1" vertex="1">
          <mxGeometry x="40" y="160" width="80" height="80" as="geometry" />
        </mxCell>
        <mxCell id="hzvrRbiPL4Qe2yFgD7qX-1" value="224×224×3" style="text;html=1;align=center;verticalAlign=middle;whiteSpace=wrap;rounded=0;fontSize=15;fontFamily=Times New Roman;" parent="1" vertex="1">
          <mxGeometry x="130" y="90" width="100" height="20" as="geometry" />
        </mxCell>
        <mxCell id="hzvrRbiPL4Qe2yFgD7qX-2" value="13×13×256" style="text;html=1;align=center;verticalAlign=middle;whiteSpace=wrap;rounded=0;fontSize=15;fontFamily=Times New Roman;" parent="1" vertex="1">
          <mxGeometry x="330" y="90" width="100" height="20" as="geometry" />
        </mxCell>
        <mxCell id="hzvrRbiPL4Qe2yFgD7qX-3" value="256×1" style="text;html=1;align=center;verticalAlign=middle;whiteSpace=wrap;rounded=0;rotation=-90;fontSize=15;fontFamily=Times New Roman;" parent="1" vertex="1">
          <mxGeometry x="543" y="120" width="100" height="50" as="geometry" />
        </mxCell>
      </root>
    </mxGraphModel>
  </diagram>
</mxfile>
